<?xml version="1.0" standalone="no"?>
<!DOCTYPE svg PUBLIC "-//W3C//DTD SVG 20010904//EN"
 "http://www.w3.org/TR/2001/REC-SVG-20010904/DTD/svg10.dtd">
<svg version="1.0" xmlns="http://www.w3.org/2000/svg"
 width="704.000000pt" height="704.000000pt" viewBox="0 0 704.000000 704.000000"
 preserveAspectRatio="xMidYMid meet">
<metadata>
Created by potrace 1.11, written by Peter Selinger 2001-2013
</metadata>
<g transform="translate(0.000000,704.000000) scale(0.100000,-0.100000)"
fill="#000000" stroke="none">
<path d="M3270 7023 c-1584 -118 -2889 -1274 -3195 -2826 -49 -251 -59 -362
-59 -672 -1 -311 10 -437 60 -685 194 -980 789 -1820 1654 -2340 747 -449
1673 -598 2540 -409 1336 290 2389 1343 2679 2679 217 993 -5 2028 -610 2840
-609 819 -1514 1321 -2539 1410 -106 9 -425 11 -530 3z m260 -108 c0 5 9 0 19
-9 14 -13 21 -14 27 -5 5 8 3 10 -7 5 -8 -4 -5 0 5 8 16 13 22 13 28 3 4 -6 8
-8 8 -4 0 4 10 3 21 -4 17 -9 19 -13 8 -20 -9 -6 -10 -9 -2 -9 7 0 16 6 20 14
4 7 20 15 36 18 22 4 25 3 15 -9 -6 -8 -18 -11 -27 -8 -12 5 -13 3 -5 -5 9 -9
17 -8 33 2 17 11 25 11 42 -1 17 -10 23 -10 29 -1 5 9 9 9 14 1 5 -8 13 -8 26
-1 13 7 21 7 26 -1 4 -8 9 -7 15 2 8 12 11 12 18 0 11 -17 39 -23 47 -10 3 6
14 7 25 4 12 -4 19 -2 19 7 1 7 8 1 16 -14 17 -32 29 -37 21 -9 -4 17 -2 18
20 10 14 -5 29 -7 34 -3 5 3 12 -1 15 -9 3 -9 16 -13 35 -11 16 2 29 -1 29 -6
0 -5 17 -8 38 -6 35 2 88 -15 77 -26 -3 -2 2 -5 10 -5 8 0 12 4 9 9 -9 13 13
9 28 -6 11 -10 19 -11 33 -4 16 9 17 8 12 -12 -5 -21 -5 -21 14 -4 18 17 20
17 33 -1 14 -19 46 -29 46 -15 0 5 14 4 30 -1 17 -6 30 -15 30 -19 0 -4 7 -11
16 -14 9 -4 13 -2 8 5 -4 7 1 9 12 7 11 -2 18 -10 16 -17 -2 -8 3 -11 12 -8 9
4 18 2 21 -3 3 -5 12 -7 19 -4 8 3 17 1 20 -5 4 -6 13 -8 21 -4 10 3 15 -1 15
-12 0 -13 7 -16 30 -13 17 3 30 1 30 -3 0 -5 7 -5 17 -2 12 5 14 3 8 -7 -6
-10 -4 -12 8 -7 10 4 20 0 26 -11 7 -11 11 -12 11 -4 0 7 5 10 10 7 6 -4 8
-10 6 -14 -3 -4 1 -8 9 -8 8 0 11 5 8 10 -3 5 0 7 8 5 8 -3 13 -11 12 -17 -2
-6 0 -11 5 -12 4 0 16 -2 27 -4 11 -2 23 1 28 8 5 8 7 5 5 -8 -2 -14 2 -20 14
-19 10 1 20 -7 24 -18 4 -15 9 -17 20 -7 11 9 14 9 14 0 0 -7 5 -9 10 -6 6 3
10 -2 10 -12 0 -15 2 -16 10 -3 5 8 12 11 16 7 4 -3 1 -15 -7 -24 -12 -16 -12
-17 2 -6 9 7 19 10 22 6 4 -3 7 -1 7 6 0 7 5 9 12 5 7 -5 5 -11 -8 -21 -18
-13 -17 -14 9 -9 15 2 27 1 27 -3 0 -5 9 -11 21 -14 14 -4 18 -10 13 -19 -4
-7 -4 -10 1 -6 4 4 16 3 26 -3 14 -7 19 -6 19 3 0 7 16 -5 36 -27 20 -22 33
-35 30 -29 -3 7 1 15 10 18 8 3 12 2 9 -4 -3 -6 -1 -10 5 -10 7 0 9 -7 6 -17
-4 -10 -4 -14 0 -10 4 4 14 1 22 -6 13 -9 14 -9 8 1 -4 6 -2 12 3 12 6 0 11
-5 11 -11 0 -6 8 -18 17 -27 16 -16 16 -16 10 1 -3 9 -2 17 3 17 6 0 11 -4 11
-10 1 -5 2 -14 3 -19 0 -6 7 -16 15 -23 10 -10 12 -10 7 0 -10 17 9 15 24 -3
7 -8 9 -15 5 -15 -4 0 -2 -7 5 -15 13 -16 30 -11 30 8 0 7 -4 6 -10 -3 -5 -8
-10 -13 -11 -10 0 3 -2 16 -5 30 l-4 25 25 -28 c14 -16 23 -33 20 -38 -4 -5
-1 -9 4 -9 6 0 11 7 11 17 0 23 9 12 14 -18 2 -13 5 -26 5 -28 1 -2 8 2 16 9
12 10 16 8 25 -14 6 -18 14 -24 25 -20 11 5 18 0 22 -15 4 -17 8 -19 20 -10
11 10 13 9 11 -2 -2 -8 -7 -17 -12 -20 -4 -4 4 -6 18 -6 14 0 26 4 26 10 0 6
3 7 6 4 4 -4 1 -13 -6 -22 -11 -13 -10 -14 5 -9 15 6 17 3 13 -14 -5 -17 -1
-21 21 -24 14 -2 26 -8 26 -15 0 -6 4 -15 9 -20 5 -5 6 -3 2 5 -4 6 -2 12 3
12 6 0 11 -4 11 -10 0 -5 5 -10 11 -10 6 0 27 -16 47 -36 20 -20 32 -33 25
-30 -6 3 -15 1 -19 -5 -4 -8 -3 -9 5 -5 6 4 14 0 18 -10 6 -15 7 -15 21 2 13
16 14 17 9 2 -5 -13 -1 -18 11 -18 11 0 13 -3 6 -8 -9 -5 -8 -11 2 -20 8 -7
14 -9 14 -5 0 4 5 1 10 -7 5 -8 15 -15 21 -15 7 0 14 -5 16 -12 3 -7 -4 -9
-19 -6 -13 3 -19 2 -15 -3 4 -4 20 -10 35 -12 15 -2 32 -8 37 -14 7 -7 6 -9
-2 -4 -6 3 -14 2 -18 -4 -3 -5 1 -10 10 -10 9 0 14 -4 10 -9 -3 -5 4 -12 15
-16 11 -3 20 -13 20 -21 0 -9 5 -12 12 -8 8 5 9 2 5 -9 -4 -11 -1 -17 7 -17 7
0 23 -11 36 -25 12 -13 27 -22 31 -19 5 3 9 -2 9 -11 0 -10 -5 -13 -12 -9 -7
4 -8 3 -4 -4 4 -6 13 -9 20 -6 9 3 13 -2 12 -18 0 -13 4 -23 11 -23 19 0 55
-44 47 -58 -4 -6 -4 -9 1 -5 4 4 14 0 22 -10 8 -9 11 -11 7 -3 -5 10 -3 12 5
7 7 -5 10 -15 6 -23 -4 -13 -3 -13 9 -4 18 15 28 -6 14 -31 -8 -18 1 -24 27
-18 5 1 7 -2 3 -6 -4 -4 0 -13 10 -21 10 -9 11 -12 2 -7 -10 5 -9 0 4 -14 16
-18 22 -20 35 -9 14 11 14 10 2 -6 -11 -13 -11 -21 -3 -29 9 -9 8 -16 -1 -27
-7 -10 -2 -8 11 3 12 11 22 14 22 9 0 -6 8 -28 17 -49 9 -22 16 -45 14 -51 -1
-7 3 -13 9 -13 5 0 10 -7 10 -15 0 -8 5 -15 11 -15 5 0 7 -5 3 -12 -5 -7 -2
-9 8 -5 9 3 23 -2 33 -13 13 -14 13 -19 3 -23 -10 -4 -10 -8 2 -16 8 -5 18 -7
22 -5 4 3 8 0 8 -6 0 -7 -7 -10 -15 -7 -8 4 -17 2 -20 -3 -6 -9 8 -14 28 -11
4 0 7 -8 7 -19 0 -11 7 -20 15 -20 8 0 15 -5 15 -11 0 -5 -4 -8 -9 -4 -5 3
-13 1 -16 -5 -4 -6 -3 -10 2 -9 14 4 43 -13 38 -21 -7 -12 6 -41 16 -35 4 3 6
-3 4 -14 -2 -11 3 -22 12 -25 12 -5 13 -9 3 -21 -10 -12 -7 -20 17 -44 18 -17
28 -37 26 -50 -2 -14 1 -19 12 -15 8 4 15 2 15 -4 0 -6 -6 -13 -12 -15 -8 -3
-6 -6 5 -6 9 -1 18 -7 18 -13 1 -7 2 -20 3 -28 0 -8 -3 -18 -8 -21 -5 -4 1
-12 14 -19 18 -10 21 -9 15 1 -5 8 -4 10 3 5 7 -4 12 -25 12 -47 0 -24 5 -39
13 -39 9 0 8 -3 -2 -9 -10 -7 -9 -11 7 -22 24 -17 34 -55 13 -51 -12 3 -12 0
-2 -12 7 -9 17 -13 22 -10 5 3 4 -7 -1 -21 -9 -23 -7 -28 11 -32 21 -6 21 -6
-2 -19 -18 -10 -20 -13 -7 -14 19 0 33 -34 22 -51 -4 -7 -3 -9 3 -6 6 4 17 -1
24 -10 10 -11 10 -14 2 -9 -9 5 -11 2 -7 -8 3 -9 10 -14 14 -11 5 3 6 -4 3
-15 -3 -11 0 -27 7 -34 9 -11 9 -20 0 -36 -9 -17 -9 -25 0 -34 8 -8 10 -7 5 5
-4 10 -3 19 2 22 4 3 9 -7 9 -21 2 -49 11 -102 17 -109 4 -3 2 -12 -4 -20 -9
-10 -8 -13 1 -13 7 0 10 -7 6 -15 -3 -9 1 -18 9 -21 16 -6 21 -34 7 -34 -16 0
-8 -50 9 -55 19 -6 15 -45 -5 -45 -6 0 -3 -7 6 -14 10 -7 15 -16 12 -19 -9 -9
-11 -86 -2 -81 5 3 6 10 3 15 -4 5 -4 9 -1 9 3 0 10 -10 17 -21 8 -15 8 -19 0
-15 -6 4 -11 3 -11 -3 0 -5 5 -13 12 -17 7 -5 5 -11 -7 -21 -14 -9 -15 -13 -4
-13 11 0 12 -2 0 -9 -17 -11 3 -25 22 -15 6 4 1 -5 -13 -20 -19 -21 -21 -26
-6 -20 16 6 17 4 7 -14 -10 -18 -9 -21 5 -15 14 5 15 3 5 -15 -7 -12 -14 -22
-17 -22 -3 0 -2 6 2 13 6 9 4 9 -6 0 -12 -11 -11 -15 2 -25 16 -13 33 -62 18
-53 -18 11 -20 -52 -4 -104 6 -19 4 -23 -7 -17 -8 4 -6 1 4 -7 14 -11 15 -16
5 -20 -10 -4 -10 -8 2 -16 13 -9 13 -11 -2 -11 -10 0 -18 -5 -18 -11 0 -6 8
-8 18 -5 16 6 16 5 0 -7 -12 -9 -14 -17 -7 -30 7 -12 6 -19 -4 -23 -18 -6 -18
-34 0 -34 7 0 13 -7 13 -16 0 -13 -3 -14 -13 -5 -10 8 -14 7 -14 -4 0 -8 4
-15 9 -15 4 0 8 -7 8 -16 0 -9 5 -12 12 -8 7 4 8 3 4 -5 -4 -6 -12 -8 -18 -5
-7 5 -9 1 -5 -9 4 -10 1 -17 -6 -17 -7 0 -8 -3 -2 -8 17 -12 16 -32 -3 -32
-16 -1 -16 -1 1 -11 15 -9 16 -12 2 -25 -13 -13 -13 -17 -1 -30 13 -12 12 -54
-1 -54 -3 0 -3 9 0 20 3 12 1 17 -5 14 -5 -3 -7 -23 -3 -45 6 -33 4 -38 -9
-33 -12 5 -15 2 -10 -10 11 -28 -5 -86 -24 -86 -14 0 -14 -2 -3 -9 8 -5 21 -7
30 -4 12 4 13 3 3 -5 -8 -5 -13 -12 -13 -16 3 -19 0 -27 -8 -22 -4 3 -7 -6 -5
-21 1 -14 -5 -37 -14 -51 -16 -24 -16 -25 8 -18 25 6 25 6 3 -5 -13 -7 -24
-16 -24 -21 -2 -12 -6 -27 -9 -33 -1 -3 -3 -8 -4 -12 -1 -5 -5 -14 -10 -22 -6
-10 -5 -12 2 -7 7 4 12 1 12 -9 0 -10 -5 -13 -12 -9 -9 5 -9 2 1 -9 7 -10 9
-17 3 -17 -6 0 -9 -11 -7 -25 1 -17 -3 -25 -13 -25 -12 0 -13 -3 -4 -12 9 -9
7 -15 -6 -25 -9 -8 -11 -12 -4 -8 7 4 12 0 12 -10 0 -9 -4 -14 -9 -11 -5 3
-12 -1 -15 -10 -4 -10 -2 -13 7 -8 8 5 7 2 -2 -9 -7 -9 -10 -17 -6 -17 5 0 0
-9 -10 -20 -10 -11 -14 -20 -10 -20 5 0 4 -5 -2 -11 -6 -6 -9 -17 -6 -24 2 -8
-5 -18 -16 -25 -13 -6 -21 -21 -21 -36 0 -15 4 -23 11 -19 6 4 5 -2 -3 -14 -7
-12 -16 -21 -20 -21 -4 0 -5 -7 -2 -15 7 -16 -20 -48 -31 -37 -4 4 -3 -3 4
-15 8 -16 8 -24 -1 -29 -7 -4 -8 -3 -4 4 4 7 2 12 -5 12 -7 0 -10 -11 -7 -30
3 -17 1 -33 -4 -36 -4 -3 -8 0 -8 6 0 6 -4 8 -10 5 -14 -8 -13 -26 1 -22 6 1
14 -4 17 -12 3 -9 0 -11 -8 -6 -10 6 -12 3 -6 -10 6 -16 4 -16 -11 -4 -11 9
-14 10 -9 2 4 -7 3 -13 -3 -13 -5 0 -8 -11 -7 -25 2 -15 -1 -22 -7 -18 -7 4
-8 0 -4 -11 6 -14 3 -17 -9 -12 -14 5 -16 1 -10 -26 3 -18 3 -28 -2 -21 -5 8
-13 2 -24 -18 -10 -17 -13 -27 -8 -24 6 3 10 2 10 -3 0 -5 -8 -12 -17 -14 -10
-3 -25 -18 -33 -34 -8 -16 -21 -37 -29 -47 -8 -10 -14 -33 -13 -50 1 -22 -1
-28 -7 -18 -10 15 -31 7 -31 -12 0 -7 4 -6 10 3 7 11 10 12 10 2 0 -8 -9 -16
-20 -19 -11 -3 -20 -9 -20 -14 0 -5 3 -8 8 -6 4 1 8 -3 9 -8 1 -6 -6 -9 -17
-7 -10 2 -22 -2 -26 -9 -4 -7 -3 -9 4 -5 6 3 13 2 17 -4 3 -5 1 -10 -5 -10 -6
0 -8 -5 -5 -10 3 -6 -1 -17 -9 -26 -12 -12 -16 -12 -16 -2 -1 7 -6 3 -13 -10
-7 -12 -15 -21 -18 -20 -2 2 -1 -1 3 -6 9 -12 -2 -37 -14 -30 -5 3 -8 -2 -6
-12 2 -12 -5 -20 -22 -25 -14 -4 -19 -7 -12 -8 7 -1 10 -6 7 -11 -4 -6 -11 -8
-16 -4 -6 3 -10 0 -8 -7 3 -29 -2 -39 -21 -39 -11 0 -20 -6 -20 -12 0 -9 -4
-8 -11 2 -10 14 -10 10 4 -30 1 -3 -2 -5 -6 -5 -5 0 -13 -8 -18 -18 -6 -9 -14
-15 -19 -12 -4 3 -6 -4 -3 -15 3 -12 0 -20 -6 -20 -7 0 -10 -4 -7 -9 4 -5 -4
-8 -17 -7 -20 2 -23 -1 -19 -21 4 -19 1 -23 -19 -21 -17 2 -24 -3 -26 -17 -4
-19 -3 -19 11 -2 8 10 16 15 18 10 3 -4 -3 -16 -14 -25 -10 -10 -18 -13 -18
-8 0 6 -5 10 -11 10 -6 0 -8 -7 -5 -16 4 -9 2 -13 -5 -8 -7 4 -9 0 -5 -12 4
-13 -1 -24 -15 -32 -17 -11 -20 -11 -13 0 6 10 4 9 -10 -1 -9 -8 -15 -20 -12
-27 3 -7 1 -16 -4 -19 -6 -4 -10 -1 -10 4 0 8 -7 7 -19 -1 -11 -7 -19 -16 -18
-22 1 -5 -7 -12 -18 -14 -11 -2 -24 -9 -30 -14 -7 -8 -6 -9 3 -4 17 10 15 -9
-3 -24 -8 -7 -15 -19 -15 -26 0 -17 -12 -18 -29 -1 -11 10 -13 9 -9 -3 4 -13
-23 -50 -37 -50 -3 0 -9 0 -14 0 -5 0 -7 -9 -4 -20 5 -18 2 -20 -21 -16 -15 3
-24 1 -21 -5 4 -5 1 -9 -4 -9 -6 0 -11 -5 -11 -11 0 -5 5 -7 12 -3 6 4 8 3 4
-4 -3 -5 -24 -13 -47 -17 -22 -4 -38 -10 -35 -13 10 -10 -26 -42 -48 -42 -17
0 -18 -2 -6 -10 13 -9 13 -10 0 -11 -8 -1 -18 -1 -22 0 -5 0 -7 -2 -7 -7 5
-27 -1 -34 -18 -21 -9 8 -14 9 -11 4 4 -6 0 -19 -8 -30 -13 -17 -16 -18 -25
-5 -8 12 -10 8 -6 -13 3 -20 1 -25 -6 -18 -14 14 -28 14 -24 0 1 -6 -14 -17
-33 -24 -19 -8 -29 -14 -22 -14 7 -1 10 -6 7 -11 -5 -8 -12 -7 -23 2 -13 11
-14 11 -8 -1 7 -10 3 -12 -14 -6 -19 6 -21 5 -11 -13 14 -26 14 -43 0 -19 -6
9 -15 15 -20 12 -5 -4 -6 -11 -3 -17 4 -7 2 -8 -5 -4 -16 10 -53 -3 -45 -16 5
-7 2 -9 -8 -5 -10 3 -15 0 -14 -11 1 -11 -7 -16 -24 -17 -14 0 -25 -5 -25 -12
0 -6 -4 -15 -9 -20 -5 -5 -6 -3 -2 5 12 21 -11 13 -28 -11 -12 -15 -15 -16
-12 -5 3 10 1 20 -5 23 -5 4 -9 3 -8 -2 4 -23 -2 -35 -17 -29 -8 3 -12 2 -9
-4 3 -6 1 -10 -4 -10 -6 0 -11 -7 -11 -16 0 -8 -5 -12 -10 -9 -6 4 -22 -1 -36
-10 -13 -9 -29 -13 -34 -10 -6 3 -10 1 -10 -4 0 -6 -7 -11 -15 -11 -8 0 -24
-9 -35 -20 -24 -24 -31 -25 -24 -5 5 11 2 13 -10 9 -9 -3 -14 -10 -11 -14 3
-5 -4 -11 -15 -15 -11 -3 -29 -18 -40 -32 -11 -14 -20 -21 -20 -15 0 6 -7 9
-15 6 -8 -4 -15 -1 -15 6 0 6 5 8 10 5 6 -3 10 -1 10 4 0 17 -18 13 -29 -7 -5
-9 -13 -16 -18 -14 -4 1 -8 -2 -8 -7 0 -5 -3 -13 -7 -17 -5 -4 -8 -2 -8 6 0
10 -3 10 -15 0 -8 -7 -22 -10 -30 -6 -9 3 -13 2 -10 -4 6 -9 -7 -14 -21 -7 -3
1 -10 -6 -15 -16 -6 -9 -15 -15 -20 -12 -5 4 -7 11 -4 16 10 15 -12 10 -26 -7
-8 -9 -21 -13 -35 -10 -13 4 -26 2 -29 -4 -4 -6 1 -7 12 -4 15 6 15 4 -2 -9
-14 -11 -22 -12 -27 -4 -5 8 -9 6 -13 -5 -5 -13 -12 -15 -30 -8 -27 10 -39 2
-24 -16 8 -9 5 -11 -11 -7 -11 3 -23 10 -26 15 -3 5 -13 0 -21 -11 -15 -22
-39 -30 -27 -9 6 9 3 9 -9 0 -9 -8 -21 -11 -27 -7 -5 3 -10 1 -10 -6 0 -7 -11
-10 -30 -7 -22 3 -27 1 -20 -7 7 -9 5 -16 -5 -25 -14 -11 -17 -10 -22 8 -3 12
-9 19 -14 16 -5 -3 -7 -10 -4 -15 11 -16 -7 -10 -21 9 -13 16 -14 16 -8 0 3
-10 2 -18 -2 -19 -5 0 -18 -3 -29 -6 -11 -3 -53 -6 -94 -6 -41 -1 -69 -3 -62
-5 6 -2 11 -8 11 -13 0 -6 -9 -5 -22 2 -18 10 -20 9 -14 -7 4 -10 4 -15 0 -11
-4 4 -14 1 -22 -6 -13 -9 -14 -9 -8 1 9 15 -15 17 -30 2 -6 -6 -19 -8 -28 -4
-14 5 -15 9 -4 15 9 6 6 8 -9 6 -12 0 -20 -4 -18 -8 3 -3 -2 -15 -10 -25 -13
-18 -14 -18 -8 5 5 21 4 22 -14 12 -16 -8 -24 -7 -33 4 -11 14 -16 14 -38 -1
-19 -13 -26 -13 -32 -3 -6 9 -12 9 -25 -4 -9 -10 -21 -15 -26 -11 -6 3 -17 0
-26 -8 -15 -11 -16 -11 -10 4 3 10 2 18 -3 18 -6 0 -10 -6 -10 -12 0 -9 -4 -8
-10 2 -9 13 -14 7 -11 -12 0 -5 -3 -8 -9 -8 -5 0 -10 8 -10 18 -1 16 -1 16
-11 -1 -7 -12 -15 -15 -27 -9 -9 5 -36 8 -59 8 -22 -1 -39 2 -37 6 2 4 0 9 -4
12 -5 3 -15 -6 -22 -19 -13 -24 -13 -25 -27 -5 -8 11 -19 18 -24 15 -12 -8
-110 -14 -126 -8 -7 3 -10 9 -7 14 3 5 -2 9 -10 9 -8 0 -18 -4 -21 -10 -9 -15
-38 -12 -29 3 5 9 4 9 -6 0 -10 -9 -19 -9 -42 3 -24 12 -32 13 -44 3 -11 -9
-18 -9 -22 -2 -8 11 -40 11 -59 0 -6 -4 -14 1 -18 11 -6 16 -7 16 -19 0 -14
-19 -43 -8 -31 12 6 10 4 11 -6 4 -19 -12 -32 -12 -46 -1 -7 5 -16 6 -21 3 -5
-3 -20 3 -32 14 -22 19 -24 19 -42 3 -18 -16 -19 -16 -12 3 6 15 4 17 -6 7
-10 -9 -18 -8 -36 4 -13 8 -28 12 -34 8 -5 -3 -10 -2 -10 3 0 6 -7 12 -14 15
-11 4 -13 1 -9 -11 6 -15 5 -16 -12 -2 -14 12 -19 12 -23 2 -3 -10 -8 -8 -19
5 -8 10 -12 12 -8 6 8 -17 -22 -6 -54 19 -26 20 -51 24 -51 8 0 -6 -10 -1 -22
10 -31 30 -63 47 -52 28 4 -7 -3 -4 -15 6 -20 18 -21 18 -15 2 7 -17 6 -18
-18 -2 -13 9 -29 13 -33 9 -5 -5 -3 1 5 11 14 18 13 19 -2 13 -10 -3 -20 -3
-22 2 -3 4 -21 7 -41 6 -22 0 -35 4 -35 12 0 7 -9 13 -20 13 -11 0 -20 5 -20
11 0 5 -5 7 -10 4 -6 -4 -7 -12 -3 -18 5 -8 2 -8 -9 0 -8 7 -19 9 -23 5 -5 -4
-5 1 -2 10 4 12 -2 19 -24 27 -16 6 -37 7 -46 4 -10 -4 -14 -2 -10 4 4 6 0 14
-9 17 -8 3 -13 10 -10 15 13 20 -25 19 -40 -2 l-16 -22 8 25 c6 22 5 23 -10
11 -17 -14 -21 -8 -17 29 2 12 0 12 -7 1 -8 -10 -13 -8 -27 10 -11 15 -15 18
-12 7 4 -12 1 -18 -9 -18 -8 0 -12 5 -9 10 3 6 -3 11 -14 11 -30 2 -34 3 -50
13 -12 8 -11 11 5 17 16 6 14 8 -9 8 -16 1 -26 5 -22 10 3 6 -3 8 -14 6 -18
-3 -37 19 -32 38 1 5 -3 6 -9 2 -6 -3 -7 -12 -3 -18 4 -7 0 -6 -10 2 -9 7 -14
18 -10 24 3 6 1 7 -5 3 -7 -4 -12 -1 -12 6 0 9 -3 9 -10 -2 -6 -9 -10 -10 -10
-3 0 6 -9 15 -20 18 -11 4 -18 10 -15 15 3 4 -4 6 -15 3 -15 -4 -18 -1 -15 16
2 12 0 19 -6 16 -5 -4 -9 1 -9 9 0 10 -6 13 -15 10 -8 -4 -15 -2 -15 4 0 6
-13 8 -30 6 -25 -4 -30 -2 -30 15 0 12 -5 21 -11 21 -5 0 -7 -6 -3 -12 4 -7
-2 -4 -14 6 -12 11 -22 25 -22 33 0 7 -5 13 -11 13 -5 0 -7 -4 -4 -10 3 -5 -2
-10 -11 -10 -10 0 -14 3 -11 7 4 3 -6 14 -22 24 -16 10 -32 26 -35 36 -3 10
-20 26 -38 36 -24 14 -28 15 -18 2 7 -8 9 -15 4 -15 -20 1 -31 17 -28 43 1 15
-2 27 -7 27 -5 0 -9 -5 -9 -11 0 -5 -5 -7 -11 -3 -6 3 -9 17 -6 31 4 22 3 23
-13 8 -15 -14 -19 -14 -29 -1 -7 8 -10 20 -7 25 4 5 2 12 -4 16 -6 4 -8 10 -5
15 3 4 -3 6 -14 3 -12 -3 -20 2 -24 16 -3 14 -10 19 -20 15 -14 -5 -32 11 -32
30 0 5 -10 15 -23 24 -21 14 -22 13 -16 -4 6 -18 5 -17 -9 1 -8 11 -13 23 -11
27 2 4 -5 13 -16 21 -11 7 -17 17 -13 20 6 7 -12 11 -30 8 -5 -1 -6 3 -3 8 10
15 -5 40 -19 34 -9 -3 -17 5 -21 21 -5 21 -9 24 -20 15 -10 -8 -12 -6 -9 11 3
15 0 20 -8 17 -7 -3 -21 1 -32 9 -16 12 -16 14 -3 14 9 0 20 4 23 10 4 6 -6 8
-25 6 -29 -3 -31 -2 -25 22 6 23 5 24 -11 11 -16 -13 -16 -12 -5 8 9 19 9 22
-3 17 -8 -3 -13 0 -13 8 1 7 -2 13 -7 13 -5 0 -13 11 -17 24 -6 16 -15 22 -28
18 -15 -4 -18 1 -16 34 1 21 -2 36 -7 33 -5 -3 -16 -3 -25 0 -12 5 -13 9 -4
20 9 11 7 15 -10 19 -12 3 -18 10 -14 16 3 6 -2 11 -13 11 -11 0 -23 7 -26 16
-3 9 -2 12 5 8 6 -3 5 3 -3 15 -7 12 -16 21 -19 21 -4 0 -9 14 -13 31 -4 19
-13 33 -26 36 -16 4 -18 9 -9 24 8 16 6 19 -10 19 -17 0 -35 25 -29 40 4 10
-45 59 -54 54 -4 -3 -8 1 -8 9 0 10 7 14 23 10 20 -4 20 -4 -3 9 -14 8 -25 21
-25 29 0 9 -6 24 -14 33 -7 9 -10 16 -5 16 5 0 -3 11 -19 24 -15 13 -27 27
-27 31 0 5 -7 17 -16 27 -13 13 -14 21 -5 31 8 11 6 18 -10 33 -14 12 -18 25
-14 41 4 16 0 25 -10 30 -9 3 -14 12 -11 19 3 7 -3 18 -12 23 -13 7 -14 13 -6
21 14 14 -8 64 -41 95 -27 26 -37 52 -23 61 7 5 8 2 3 -6 -5 -8 -4 -11 3 -7 7
5 7 14 -1 31 -7 14 -14 23 -16 20 -3 -2 -10 8 -17 23 -8 21 -8 32 0 42 9 12 7
13 -10 9 -12 -3 -21 0 -21 6 0 6 -4 19 -8 29 -4 10 -3 17 5 17 6 0 8 -4 5 -10
-3 -5 -1 -10 4 -10 6 0 11 11 11 25 0 14 -5 25 -11 25 -5 0 -7 -6 -4 -12 4 -7
-1 -4 -10 7 -9 12 -14 29 -10 42 4 18 2 21 -12 16 -14 -5 -12 0 7 28 13 19 17
28 10 22 -21 -20 -26 -16 -27 20 -1 54 -3 58 -13 52 -5 -3 -7 -13 -4 -23 5
-14 4 -14 -4 -3 -13 19 4 54 21 45 9 -5 8 -3 0 7 -7 7 -13 21 -13 31 0 10 -4
18 -8 18 -5 0 -14 12 -20 26 -9 19 -9 24 0 18 8 -5 9 -2 5 9 -4 10 -1 17 5 17
7 0 3 6 -7 14 -16 11 -17 17 -7 29 11 13 9 19 -9 36 l-21 20 23 -6 c20 -6 21
-5 8 9 -7 9 -18 13 -23 10 -5 -3 -6 0 -2 6 3 6 1 14 -5 18 -9 5 -6 11 7 22 15
11 15 13 2 9 -9 -3 -19 0 -22 9 -3 9 -1 12 4 9 6 -3 10 -1 10 5 0 6 6 8 12 4
10 -6 10 -4 1 7 -7 7 -13 24 -13 37 0 14 -8 31 -17 38 -17 12 -17 13 0 19 9 4
17 12 17 17 0 6 -7 8 -15 4 -8 -3 -15 -1 -15 3 0 5 5 11 11 13 7 2 13 16 15
30 2 21 -1 26 -14 22 -16 -5 -16 -4 -1 7 15 12 15 14 -3 29 -19 15 -19 16 -2
30 15 12 16 12 9 1 -5 -9 -4 -12 3 -7 6 4 9 13 6 21 -4 8 -9 13 -13 11 -3 -2
-6 11 -6 30 0 19 4 34 9 34 6 0 1 7 -10 15 -10 9 -13 14 -5 13 7 -2 16 3 18
10 3 8 -2 10 -14 6 -16 -5 -16 -4 1 10 15 12 16 16 5 16 -21 0 -23 49 -3 57
15 5 15 7 0 15 -12 7 -13 14 -5 36 6 15 12 41 14 57 2 17 6 44 9 60 3 17 3 24
0 18 -3 -7 -9 -13 -13 -13 -9 0 -8 37 1 46 4 3 3 17 -2 30 -8 19 -6 24 8 25
15 1 15 2 -1 6 -14 4 -16 8 -6 19 6 7 16 11 23 7 8 -5 8 -3 0 8 -18 24 -24 48
-12 55 7 5 8 2 3 -6 -6 -9 -4 -11 4 -6 7 5 10 15 7 23 -4 9 -2 21 4 28 8 9 8
15 0 20 -5 3 -10 11 -10 16 0 6 5 7 10 4 6 -3 10 1 10 10 0 9 -4 14 -9 10 -5
-3 -13 -1 -16 5 -4 6 -1 9 7 8 8 -2 14 8 16 25 2 15 6 27 10 27 4 0 8 23 9 50
2 39 -1 50 -13 50 -12 0 -12 2 -2 14 7 8 16 12 20 10 11 -7 40 69 30 75 -5 3
-8 17 -7 31 1 19 7 24 21 22 15 -3 17 -1 6 9 -6 7 -12 24 -12 37 0 20 3 22 14
13 11 -9 14 -8 12 6 0 10 -5 21 -11 25 -6 5 -5 8 3 8 7 0 11 4 8 9 -3 5 1 14
9 21 8 7 12 17 8 23 -3 5 3 17 13 25 13 10 14 13 3 9 -9 -3 -16 0 -16 8 0 7 6
11 14 8 8 -3 11 0 8 9 -8 21 13 71 26 62 8 -5 9 -2 2 11 -11 19 -6 58 6 51 4
-3 6 12 4 32 -1 20 0 30 3 20 3 -9 13 -19 22 -23 13 -5 14 -4 5 6 -8 8 -9 18
-2 31 7 13 6 18 -3 18 -7 0 -1 8 13 18 22 14 25 21 18 40 -6 15 -5 21 1 17 6
-4 12 0 14 7 2 7 7 22 12 33 4 11 6 28 5 38 -1 9 3 17 9 17 7 0 9 7 6 16 -3 8
-2 12 4 9 9 -6 14 11 13 43 -1 10 2 10 16 0 9 -7 13 -9 9 -4 -11 12 10 46 28
46 8 0 12 5 9 10 -3 6 -3 16 2 23 9 13 10 19 12 46 0 11 14 28 30 37 23 14 28
22 24 45 -3 23 -1 27 15 24 15 -3 18 1 14 21 -2 13 0 24 6 24 5 0 13 12 16 26
4 15 10 24 13 20 3 -3 13 3 20 14 8 11 20 17 26 13 7 -3 4 3 -6 14 -16 19 -16
20 8 33 23 12 23 14 7 26 -15 12 -14 13 9 9 17 -3 27 -1 26 8 -1 40 4 49 24
44 15 -4 19 -2 15 9 -3 8 -1 14 4 14 6 0 10 11 10 23 0 27 39 77 59 77 9 0 11
8 7 28 l-6 27 22 -25 c13 -16 19 -18 15 -8 -3 10 -2 20 4 23 5 4 7 10 4 15 -3
5 0 12 6 16 8 4 9 3 5 -4 -4 -7 -2 -12 3 -12 6 0 11 10 11 22 0 12 3 18 6 15
4 -4 14 8 23 26 9 17 23 31 31 29 11 -3 11 0 -1 14 -8 10 -9 15 -3 11 6 -3 21
7 33 23 12 17 28 30 36 30 8 0 15 6 15 13 0 8 9 22 20 32 17 15 20 16 15 3 -4
-9 -1 -19 6 -24 7 -4 10 -3 6 4 -9 13 2 44 13 37 5 -3 7 5 4 19 -3 18 0 23 14
22 9 0 16 5 14 12 -1 6 5 12 13 12 8 0 15 5 15 10 0 6 9 10 20 10 13 0 17 5
14 14 -3 8 3 19 16 26 11 6 18 15 15 21 -4 5 -1 9 4 9 6 0 11 -4 11 -10 0 -5
7 -7 15 -4 12 5 13 9 3 21 -10 12 -9 14 8 11 14 -2 19 3 18 19 0 19 3 22 24
16 17 -4 23 -2 18 6 -4 6 -3 11 2 11 5 0 12 9 15 21 4 15 12 19 33 17 18 -2
29 2 29 10 0 6 5 13 10 14 18 2 34 32 24 44 -6 8 -2 10 14 7 14 -3 31 2 40 11
12 12 17 13 21 3 4 -6 4 -2 2 10 -2 13 0 26 5 29 5 3 9 -3 10 -13 0 -16 1 -16
9 2 5 12 9 14 9 6 1 -14 12 -10 14 6 0 4 7 14 14 21 7 8 11 17 9 21 -7 11 28
10 35 -2 4 -5 10 0 14 12 6 19 17 26 29 19 7 -5 46 35 41 42 -2 4 7 5 20 2 23
-4 29 3 27 29 -1 3 5 6 13 6 8 0 11 -5 8 -11 -3 -6 0 -5 8 2 12 11 12 14 -1
23 -11 8 -9 9 9 4 14 -4 21 -3 18 2 -4 5 0 10 8 10 8 0 12 -5 8 -10 -3 -5 5
-3 18 4 13 7 33 12 44 10 l20 -3 -20 17 -20 16 20 -3 c11 -2 28 4 38 13 10 9
28 16 40 15 12 -1 28 7 35 16 7 10 18 16 23 13 5 -4 9 2 10 12 0 11 3 13 6 5
4 -9 10 -7 23 8 13 15 20 17 23 8 4 -8 8 -5 12 10 4 12 12 22 17 22 6 0 8 -7
4 -15 -4 -12 -2 -13 17 -3 12 6 29 14 37 19 8 4 14 12 13 18 -2 6 10 11 26 11
16 0 34 7 41 16 16 18 51 38 49 27 -4 -25 4 -24 22 2 12 17 19 22 15 13 -3
-10 -1 -20 4 -23 6 -4 10 -1 10 5 0 6 5 8 12 4 8 -5 9 -2 5 9 -9 23 8 30 24
10 12 -14 12 -16 0 -8 -10 5 -12 4 -7 -3 4 -7 11 -12 15 -12 8 0 24 37 22 52
0 4 11 4 26 2 15 -3 30 1 35 8 7 9 8 6 5 -9 -3 -13 -1 -23 4 -23 5 0 9 8 9 18
0 15 8 18 42 19 28 1 46 7 55 19 7 10 13 14 13 10 0 -5 7 -3 15 4 8 7 15 10
15 7 0 -2 28 2 63 10 34 8 87 16 117 18 84 7 94 9 102 21 4 6 19 10 33 9 16
-2 25 2 25 11 0 17 12 18 28 2 7 -7 12 -9 12 -5 0 4 9 3 19 -2 14 -8 22 -7 31
4 7 8 16 12 21 9 5 -3 9 1 9 8 0 10 2 10 9 -1 6 -9 10 -10 16 -2 5 9 10 9 20
1 9 -8 17 -6 29 5 15 15 17 15 23 0 5 -15 8 -14 20 6 8 13 12 17 10 8 -4 -12
1 -15 18 -13 13 1 28 5 34 8 5 4 12 2 16 -4 10 -16 25 -12 25 8 1 16 1 16 11
0 11 -20 29 -24 29 -7 0 5 -6 7 -12 3 -10 -5 -10 -4 -1 6 10 11 17 10 37 -3
16 -11 27 -13 31 -7 4 6 10 8 14 5 5 -2 17 2 27 9 13 10 23 11 31 4 7 -6 13
-7 13 -3z m265 5 c-3 -5 -12 -10 -18 -10 -7 0 -6 4 3 10 19 12 23 12 15 0z
m-711 -36 c3 -8 2 -12 -4 -9 -6 3 -10 10 -10 16 0 14 7 11 14 -7z m1350 -83
c-9 -9 -34 -9 -34 -1 0 5 9 8 20 7 10 -1 17 -3 14 -6z m-2237 -167 c-3 -3 -12
-4 -19 -1 -8 3 -5 6 6 6 11 1 17 -2 13 -5z m-1507 -1268 c0 -3 -4 -8 -10 -11
-5 -3 -10 -1 -10 4 0 6 5 11 10 11 6 0 10 -2 10 -4z m5915 -424 c-3 -3 -11 0
-18 7 -9 10 -8 11 6 5 10 -3 15 -9 12 -12z m-6325 -448 c0 -8 -19 -13 -24 -6
-3 5 1 9 9 9 8 0 15 -2 15 -3z m-55 -212 c-3 -3 -11 0 -18 7 -9 10 -8 11 6 5
10 -3 15 -9 12 -12z m6705 -727 c0 -2 -6 -8 -13 -14 -10 -8 -14 -7 -14 2 0 8
6 14 14 14 7 0 13 -1 13 -2z m-110 -875 c0 -5 -2 -10 -4 -10 -3 0 -8 5 -11 10
-3 6 -1 10 4 10 6 0 11 -4 11 -10z m-100 -324 c0 -2 -7 -7 -16 -10 -8 -3 -12
-2 -9 4 6 10 25 14 25 6z m-6349 -89 c-10 -9 -11 -8 -5 6 3 10 9 15 12 12 3
-3 0 -11 -7 -18z m23 -16 c3 -5 -1 -14 -8 -20 -11 -9 -16 -9 -22 0 -4 8 -3 9
4 5 7 -4 12 -1 12 8 0 18 6 21 14 7z m27 -99 c-7 -2 -18 1 -23 6 -8 8 -4 9 13
5 13 -4 18 -8 10 -11z m6042 -335 c3 -8 -1 -14 -9 -14 -15 0 -18 9 -7 20 9 9
10 9 16 -6z m-5833 -87 c0 -5 -5 -10 -11 -10 -5 0 -7 5 -4 10 3 6 8 10 11 10
2 0 4 -4 4 -10z m37 -36 c-3 -3 -12 -4 -19 -1 -8 3 -5 6 6 6 11 1 17 -2 13 -5z
m598 -694 c3 -5 1 -10 -4 -10 -6 0 -11 5 -11 10 0 6 2 10 4 10 3 0 8 -4 11
-10z m379 -298 c3 -5 -1 -9 -9 -9 -8 0 -15 4 -15 9 0 4 4 8 9 8 6 0 12 -4 15
-8z"/>
<path d="M4020 6859 c0 -5 5 -7 10 -4 6 3 10 8 10 11 0 2 -4 4 -10 4 -5 0 -10
-5 -10 -11z"/>
<path d="M2670 6790 c-13 -8 -12 -10 3 -10 9 0 17 5 17 10 0 12 -1 12 -20 0z"/>
<path d="M2295 6679 c-11 -16 -1 -19 13 -3 7 8 8 14 3 14 -5 0 -13 -5 -16 -11z"/>
<path d="M1627 6333 c-4 -3 -7 -11 -7 -17 0 -6 5 -5 12 2 6 6 9 14 7 17 -3 3
-9 2 -12 -2z"/>
<path d="M1380 6146 c0 -9 5 -16 10 -16 6 0 10 4 10 9 0 6 -4 13 -10 16 -5 3
-10 -1 -10 -9z"/>
<path d="M811 5534 c0 -11 3 -14 6 -6 3 7 2 16 -1 19 -3 4 -6 -2 -5 -13z"/>
<path d="M2521 4148 c236 -629 536 -1425 666 -1770 l236 -628 87 0 87 0 97
253 c53 138 356 934 674 1767 l578 1515 -60 3 c-32 2 -62 -1 -65 -7 -3 -5
-298 -777 -655 -1715 -358 -938 -653 -1706 -656 -1706 -3 0 -296 772 -649
1715 l-643 1715 -63 0 -63 0 429 -1142z"/>
<path d="M6426 5233 c-6 -14 -5 -15 5 -6 7 7 10 15 7 18 -3 3 -9 -2 -12 -12z"/>
<path d="M260 2600 c0 -5 5 -10 11 -10 5 0 7 5 4 10 -3 6 -8 10 -11 10 -2 0
-4 -4 -4 -10z"/>
<path d="M467 2039 c7 -7 15 -10 18 -7 3 3 -2 9 -12 12 -14 6 -15 5 -6 -5z"/>
<path d="M827 1469 c7 -7 15 -10 18 -7 3 3 -2 9 -12 12 -14 6 -15 5 -6 -5z"/>
<path d="M931 1354 c0 -11 3 -14 6 -6 3 7 2 16 -1 19 -3 4 -6 -2 -5 -13z"/>
<path d="M5990 1209 c0 -5 5 -7 10 -4 6 3 10 8 10 11 0 2 -4 4 -10 4 -5 0 -10
-5 -10 -11z"/>
<path d="M5840 1065 c-7 -9 -11 -17 -9 -20 3 -2 10 5 17 15 14 24 10 26 -8 5z"/>
<path d="M1450 841 c0 -6 4 -13 10 -16 6 -3 7 1 4 9 -7 18 -14 21 -14 7z"/>
<path d="M1545 789 c-4 -6 -5 -12 -2 -15 2 -3 7 2 10 11 7 17 1 20 -8 4z"/>
<path d="M1596 743 c-6 -14 -5 -15 5 -6 7 7 10 15 7 18 -3 3 -9 -2 -12 -12z"/>
<path d="M5414 734 c-18 -14 -18 -15 4 -4 12 6 22 13 22 15 0 8 -5 6 -26 -11z"/>
<path d="M1928 533 c6 -2 18 -2 25 0 6 3 1 5 -13 5 -14 0 -19 -2 -12 -5z"/>
<path d="M4843 413 c1 -17 4 -19 14 -11 7 6 13 16 13 22 0 6 -4 5 -9 -3 -7
-11 -9 -11 -14 0 -3 8 -4 4 -4 -8z"/>
<path d="M2610 260 c-9 -6 -10 -10 -3 -10 6 0 15 5 18 10 8 12 4 12 -15 0z"/>
<path d="M3976 177 c3 -10 9 -15 12 -12 3 3 0 11 -7 18 -10 9 -11 8 -5 -6z"/>
<path d="M3830 159 c0 -5 5 -7 10 -4 6 3 10 8 10 11 0 2 -4 4 -10 4 -5 0 -10
-5 -10 -11z"/>
</g>
</svg>
